{"title":"Top Secret (PSP + Ipod touch + Zune)","uid":5659090,"size":358314539,"categoryP":"video","categoryS":"handheld","magnet":"?xt=urn:btih:aea47c46e749872dd56801305979c0720e9bb41b&amp;dn=Top+Secret+%28PSP+%2B+Ipod+touch+%2B+Zune%29&amp;tr=udp%3A%2F%2Ftracker.openbittorrent.com%3A80&amp;tr=udp%3A%2F%2Fopen.demonii.com%3A1337&amp;tr=udp%3A%2F%2Ftracker.coppersurfer.tk%3A6969&amp;tr=udp%3A%2F%2Fexodus.desync.com%3A6969","seeders":0,"leechers":0,"uploader":"on.off.on","files":-1,"time":1277905221,"description":"Top secret! &lt;a href=&quot;\nhttp://www.imdb.com/title/tt0088286/&quot; rel=&quot;nofollow&quot; target=&quot;_NEW&quot;&gt;\nhttp://www.imdb.com/title/tt0088286/&lt;/a&gt;\n\nSource  :\n\nTop.Secret.1984.720p.HDTV.x264-CtrlHD\n\n\nInfo :\n\nID                               : 1\nFormat                           : AVC\nFormat/Info                      : Advanced Video Codec\nFormat profile                   : &lt;a class=&quot;__cf_email__&quot; href=&quot;/cdn-cgi/l/email-protection&quot; data-cfemail=&quot;6d2f0c1e08010403082d215f435c&quot;&gt;[email&amp;#160;protected]&lt;/a&gt;&lt;script cf-hash='f9e31' type=&quot;text/javascript&quot;&gt;\n/* &lt;![CDATA[ */!function(){try{var t=&quot;currentScript&quot;in document?document.currentScript:function(){for(var t=document.getElementsByTagName(&quot;script&quot;),e=t.length;e--;)if(t[e].getAttribute(&quot;cf-hash&quot;))return t[e]}();if(t&amp;&amp;t.previousSibling){var e,r,n,i,c=t.previousSibling,a=c.getAttribute(&quot;data-cfemail&quot;);if(a){for(e=&quot;&quot;,r=parseInt(a.substr(0,2),16),n=2;a.length-n;n+=2)i=parseInt(a.substr(n,2),16)^r,e+=String.fromCharCode(i);e=document.createTextNode(e),c.parentNode.replaceChild(e,c)}}}catch(u){}}();/* ]]&gt; */&lt;/script&gt;\nFormat settings, CABAC           : No\nFormat settings, ReFrames        : 3 frames\nCodec ID                         : avc1\nCodec ID/Info                    : Advanced Video Coding\nDuration                         : 1h 29mn\nBit rate mode                    : Variable\nBit rate                         : 400 Kbps\nWidth                            : 480 pixels\nHeight                           : 272 pixels\nDisplay aspect ratio             : 16:9\nFrame rate mode                  : Variable\nFrame rate                       : 23.976 fps\nMinimum frame rate               : 23.810 fps\nMaximum frame rate               : 24.390 fps\nColor space                      : YUV\nChroma subsampling               : 4:2:0\nBit depth                        : 8 bits\nScan type                        : Progressive\nBits/(Pixel*Frame)               : 0.128\nStream size                      : 257 MiB (75%)\nWriting library                  : x264 core 79\n\nID                               : 2\nFormat                           : AAC\nFormat/Info                      : Advanced Audio Codec\nFormat version                   : Version 4\nFormat profile                   : LC\nFormat settings, SBR             : No\nCodec ID                         : 40\nDuration                         : 1h 29mn\nBit rate mode                    : Variable\nBit rate                         : 128 Kbps\nMaximum bit rate                 : 161 Kbps\nChannel(s)                       : 2 channels\nChannel positions                : Front: L R\nSampling rate                    : 48.0 KHz\nStream size                      : 82.2 MiB (24%)\nLanguage                         : English\n\n\n\nRandom Screens : &lt;a href=&quot;\nhttp://img28.imageshack.us/img28/2569/vlcsnap00001is.png&quot; rel=&quot;nofollow&quot; target=&quot;_NEW&quot;&gt;\nhttp://img28.imageshack.us/img28/2569/vlcsnap00001is.png&lt;/a&gt; &lt;a href=&quot;\nhttp://img59.imageshack.us/img59/7130/vlcsnap00002u.png&quot; rel=&quot;nofollow&quot; target=&quot;_NEW&quot;&gt;\nhttp://img59.imageshack.us/img59/7130/vlcsnap00002u.png&lt;/a&gt; &lt;a href=&quot;\nhttp://img691.imageshack.us/img691/7651/vlcsnap00003w.png&quot; rel=&quot;nofollow&quot; target=&quot;_NEW&quot;&gt;\nhttp://img691.imageshack.us/img691/7651/vlcsnap00003w.png&lt;/a&gt; &lt;a href=&quot;\nhttp://img690.imageshack.us/img690/7201/vlcsnap00004n.png&quot; rel=&quot;nofollow&quot; target=&quot;_NEW&quot;&gt;\nhttp://img690.imageshack.us/img690/7201/vlcsnap00004n.png&lt;/a&gt; &lt;a href=&quot;\nhttp://img294.imageshack.us/img294/8899/vlcsnap00005r.png&quot; rel=&quot;nofollow&quot; target=&quot;_NEW&quot;&gt;\nhttp://img294.imageshack.us/img294/8899/vlcsnap00005r.png&lt;/a&gt; &lt;a href=&quot;\nhttp://img821.imageshack.us/img821/4379/vlcsnap00006p.png&quot; rel=&quot;nofollow&quot; target=&quot;_NEW&quot;&gt;\nhttp://img821.imageshack.us/img821/4379/vlcsnap00006p.png&lt;/a&gt;\n\n\n\nPLEASE LET THE TORRENT SEED AND SHARE IT WITH ALL YOU KNOW!\n\nLet me know what I can do to be your trusted source of Handheld videos. &lt;a href=&quot;\nhttp://thepiratebay.se/user/on.off.on/&quot; rel=&quot;nofollow&quot; target=&quot;_NEW&quot;&gt;\nhttp://thepiratebay.se/user/on.off.on/&lt;/a&gt; -OOO","torrent":{"xt":"urn:btih:aea47c46e749872dd56801305979c0720e9bb41b","amp;dn":"Top+Secret+%28PSP+%2B+Ipod+touch+%2B+Zune%29","amp;tr":["udp%3A%2F%2Ftracker.openbittorrent.com%3A80","udp%3A%2F%2Fopen.demonii.com%3A1337","udp%3A%2F%2Ftracker.coppersurfer.tk%3A6969","udp%3A%2F%2Fexodus.desync.com%3A6969"],"infoHash":"aea47c46e749872dd56801305979c0720e9bb41b","infoHashBuffer":{"type":"Buffer","data":[174,164,124,70,231,73,135,45,213,104,1,48,89,121,192,114,14,155,180,27]},"announce":[],"urlList":[]}}